# xmcd
#
# Track frame offsets:
# 150
# 12032
# 22165
# 27422
# 43127
# 55437
# 61200
# 73540
# 86327
# 97525
# 107212
# 116482
# 131920
# 141440
# 148382
#
# Disc length: 2083 seconds
#
#
# Revision: 0
# Processed by: cddbd v1.5.2PL0 Copyright (c) Steve Scherf et al.
# Submitted via: FreeRIP 2.945 
#
DISCID=d908210f
DTITLE=Carol Stokes - Carol's Bluegrass Fiddling Favorites
DYEAR=1989
DGENRE=Bluegrass
TTITLE0=Dueling Fiddles
TTITLE1=Rocky Top
TTITLE2=Devil's Dream
TTITLE3=Danny Boy
TTITLE4=Listen To The Mockingbird
TTITLE5=Fire On The Mountain
TTITLE6=Tennessee Waltz
TTITLE7=Medley: Bile ém Cabbage Down/Old Joe Clark/Cotton Eyed Joe
TTITLE8=Maiden's Prayer
TTITLE9=Carol's Twinkle
TTITLE10=Sallie Gooden
TTITLE11=Faded Love
TTITLE12=Beaumont Rag
TTITLE13=Bill Cheatham
TTITLE14=Orange Blossom Special
EXTD=
EXTT0=
EXTT1=
EXTT2=
EXTT3=
EXTT4=
EXTT5=
EXTT6=
EXTT7=
EXTT8=
EXTT9=
EXTT10=
EXTT11=
EXTT12=
EXTT13=
EXTT14=
PLAYORDER=
